<svg xmlns="http://www.w3.org/2000/svg" width="760" height="460" viewBox="0 0 760 460" font-family="Arial, Helvetica, sans-serif" role="img" aria-labelledby="title desc">
  <title id="title">ds-hentai preview</title>
  <desc id="desc">Gallery chrome Front Page in Compact mode: nav, category chips, search, session table with Action, status footer.</desc>
  <rect width="760" height="460" fill="#34353b"/>

  <!-- Nav -->
  <text x="28" y="20" fill="#eee" font-size="11" font-weight="700" text-decoration="underline">▸ Front Page</text>
  <text x="128" y="20" fill="#aaa" font-size="11" font-weight="700">▸ New Session</text>
  <text x="232" y="20" fill="#aaa" font-size="11" font-weight="700">▸ Popular</text>
  <text x="310" y="20" fill="#aaa" font-size="11" font-weight="700">▸ Workspaces</text>
  <text x="412" y="20" fill="#aaa" font-size="11" font-weight="700">▸ Favorites</text>
  <text x="500" y="20" fill="#aaa" font-size="11" font-weight="700">▸ Settings</text>

  <!-- ido panel -->
  <rect x="48" y="32" width="664" height="392" fill="#4f535b" stroke="#000"/>
  <text x="380" y="50" fill="#f1f1f1" font-size="12" font-weight="700" text-anchor="middle">DeepSeek Harness — <tspan fill="#ddd">Now With Hentais</tspan></text>

  <!-- category box -->
  <rect x="120" y="58" width="520" height="96" fill="#4f535b" stroke="#3c3c3c" stroke-width="2"/>
  <rect x="136" y="66" width="88" height="16" fill="#9e2720" rx="3"/>
  <text x="180" y="78" fill="#f1f1f1" font-size="9" font-weight="700" text-anchor="middle">Chat</text>
  <rect x="230" y="66" width="88" height="16" fill="#db6c24" rx="3"/>
  <text x="274" y="78" fill="#f1f1f1" font-size="9" font-weight="700" text-anchor="middle">Code</text>
  <rect x="324" y="66" width="88" height="16" fill="#d38f1d" rx="3"/>
  <text x="368" y="78" fill="#f1f1f1" font-size="9" font-weight="700" text-anchor="middle">Files</text>
  <rect x="418" y="66" width="88" height="16" fill="#6a936d" rx="3"/>
  <text x="462" y="78" fill="#f1f1f1" font-size="9" font-weight="700" text-anchor="middle">Tools</text>
  <rect x="512" y="66" width="88" height="16" fill="#ab9f60" rx="3"/>
  <text x="556" y="78" fill="#f1f1f1" font-size="9" font-weight="700" text-anchor="middle">Plan</text>
  <rect x="136" y="86" width="88" height="16" fill="#5fa9cf" rx="3"/>
  <text x="180" y="98" fill="#f1f1f1" font-size="9" font-weight="700" text-anchor="middle">Search</text>
  <rect x="230" y="86" width="88" height="16" fill="#325ca2" rx="3"/>
  <text x="274" y="98" fill="#f1f1f1" font-size="9" font-weight="700" text-anchor="middle">Agent</text>
  <rect x="324" y="86" width="88" height="16" fill="#6a32a2" rx="3"/>
  <text x="368" y="98" fill="#f1f1f1" font-size="9" font-weight="700" text-anchor="middle">Skill</text>
  <rect x="418" y="86" width="88" height="16" fill="#a23282" rx="3"/>
  <text x="462" y="98" fill="#f1f1f1" font-size="9" font-weight="700" text-anchor="middle">Notes</text>
  <rect x="512" y="86" width="88" height="16" fill="#777777" rx="3"/>
  <text x="556" y="98" fill="#f1f1f1" font-size="9" font-weight="700" text-anchor="middle">Misc</text>
  <rect x="136" y="108" width="268" height="18" fill="#34353b" stroke="#8d8d8d" stroke-width="2"/>
  <text x="144" y="121" fill="#8f8f8f" font-size="9">Search Keywords</text>
  <rect x="410" y="108" width="64" height="18" fill="#34353b" stroke="#8d8d8d" stroke-width="2"/>
  <text x="442" y="121" fill="#f1f1f1" font-size="9" text-anchor="middle">Search</text>
  <rect x="478" y="108" width="52" height="18" fill="#34353b" stroke="#8d8d8d" stroke-width="2"/>
  <text x="504" y="121" fill="#f1f1f1" font-size="9" text-anchor="middle">Clear</text>

  <text x="380" y="146" fill="#dddddd" font-size="10" text-anchor="middle">[ Model ]  [ Access ]  [ Files ]</text>

  <!-- range -->
  <rect x="120" y="160" width="520" height="12" fill="#575b62" rx="6"/>
  <circle cx="140" cy="166" r="4" fill="#dddddd"/>
  <circle cx="162" cy="166" r="3.2" fill="rgba(221,221,221,0.27)"/>
  <circle cx="184" cy="166" r="3.2" fill="rgba(221,221,221,0.27)"/>
  <circle cx="206" cy="166" r="3.2" fill="rgba(221,221,221,0.27)"/>
  <circle cx="228" cy="166" r="3.2" fill="rgba(221,221,221,0.27)"/>
  <circle cx="250" cy="166" r="3.2" fill="rgba(221,221,221,0.27)"/>
  <circle cx="272" cy="166" r="3.2" fill="rgba(221,221,221,0.27)"/>
  <circle cx="294" cy="166" r="3.2" fill="rgba(221,221,221,0.27)"/>
  <circle cx="316" cy="166" r="3.2" fill="rgba(221,221,221,0.27)"/>
  <circle cx="338" cy="166" r="3.2" fill="rgba(221,221,221,0.27)"/>
  <circle cx="360" cy="166" r="3.2" fill="rgba(221,221,221,0.27)"/>
  <circle cx="382" cy="166" r="3.2" fill="rgba(221,221,221,0.27)"/>
  <circle cx="404" cy="166" r="3.2" fill="rgba(221,221,221,0.27)"/>
  <circle cx="426" cy="166" r="3.2" fill="rgba(221,221,221,0.27)"/>
  <circle cx="448" cy="166" r="3.2" fill="rgba(221,221,221,0.27)"/>
  <circle cx="470" cy="166" r="3.2" fill="rgba(221,221,221,0.27)"/>
  <circle cx="492" cy="166" r="3.2" fill="rgba(221,221,221,0.27)"/>
  <circle cx="514" cy="166" r="3.2" fill="rgba(221,221,221,0.27)"/>
  <circle cx="536" cy="166" r="3.2" fill="rgba(221,221,221,0.27)"/>
  <circle cx="558" cy="166" r="3.2" fill="rgba(221,221,221,0.27)"/>
  <circle cx="580" cy="166" r="3.2" fill="rgba(221,221,221,0.27)"/>
  <circle cx="602" cy="166" r="3.2" fill="rgba(221,221,221,0.27)"/>
  <circle cx="624" cy="166" r="3.2" fill="rgba(221,221,221,0.27)"/>

  <text x="380" y="188" fill="#f1f1f1" font-size="10" text-anchor="middle">Found 12 results.</text>
  <text x="200" y="206" fill="#777777" font-size="10">&lt;&lt; First</text>
  <text x="280" y="206" fill="#777777" font-size="10">&lt; Prev</text>
  <text x="380" y="206" fill="#f1f1f1" font-size="10" text-anchor="middle">1 / 1</text>
  <text x="448" y="206" fill="#777777" font-size="10">Next &gt;</text>
  <text x="518" y="206" fill="#777777" font-size="10">Last &gt;&gt;</text>
  <rect x="600" y="194" width="88" height="16" fill="#34353b" stroke="#8d8d8d" stroke-width="2"/>
  <text x="644" y="206" fill="#f1f1f1" font-size="9" font-weight="700" text-anchor="middle">Compact</text>

  <!-- table -->
  <rect x="60" y="214" width="640" height="198" fill="#363940" stroke="#3c3c3c" stroke-width="2"/>
  <rect x="60" y="214" width="640" height="18" fill="#40454b"/>
  <text x="168" y="227" fill="#f1f1f1" font-size="9" font-weight="700">Published</text>
  <text x="280" y="227" fill="#f1f1f1" font-size="9" font-weight="700">Title</text>
  <text x="648" y="227" fill="#f1f1f1" font-size="9" font-weight="700" text-anchor="middle">Action</text>

  <!-- row 1 Chat -->
  <rect x="60" y="232" width="640" height="45" fill="#363940"/>
  <rect x="68" y="242" width="72" height="16" fill="#9e2720" rx="3"/>
  <text x="104" y="254" fill="#f1f1f1" font-size="8" font-weight="700" text-anchor="middle">Chat</text>
  <text x="148" y="248" fill="#dddddd" font-size="9">2026-08-27 11:02</text>
  <text x="148" y="262" fill="#fb7878" font-size="10">♥</text>
  <text x="248" y="248" fill="#dddddd" font-size="11">workspace / session-alpha</text>
  <rect x="248" y="254" width="44" height="12" fill="#4f535b" stroke="#989898" rx="3"/>
  <text x="270" y="264" fill="#dddddd" font-size="8" font-weight="700" text-anchor="middle">chat</text>
  <rect x="296" y="254" width="48" height="12" fill="#4f535b" stroke="#989898" rx="3"/>
  <text x="320" y="264" fill="#dddddd" font-size="8" font-weight="700" text-anchor="middle">agent</text>
  <text x="648" y="246" fill="#dddddd" font-size="8" text-anchor="middle">Rename</text>
  <text x="648" y="258" fill="#dddddd" font-size="8" text-anchor="middle">Fork</text>
  <text x="648" y="270" fill="#dddddd" font-size="8" text-anchor="middle">Archive</text>
  <line x1="148" y1="232" x2="148" y2="277" stroke="rgba(111,111,111,0.3)"/>
  <line x1="240" y1="232" x2="240" y2="277" stroke="rgba(111,111,111,0.3)"/>
  <line x1="596" y1="232" x2="596" y2="277" stroke="rgba(111,111,111,0.3)"/>

  <!-- row 2 Code -->
  <rect x="60" y="277" width="640" height="45" fill="#3c414b"/>
  <rect x="68" y="287" width="72" height="16" fill="#db6c24" rx="3"/>
  <text x="104" y="299" fill="#f1f1f1" font-size="8" font-weight="700" text-anchor="middle">Code</text>
  <text x="148" y="293" fill="#dddddd" font-size="9">2026-08-26 19:40</text>
  <text x="148" y="307" fill="#c2a8a4" font-size="10">♡</text>
  <text x="248" y="293" fill="#eeeeee" font-size="11">fix harness overlay chrome</text>
  <rect x="248" y="299" width="44" height="12" fill="#4f535b" stroke="#989898" rx="3"/>
  <text x="270" y="309" fill="#dddddd" font-size="8" font-weight="700" text-anchor="middle">code</text>
  <rect x="296" y="299" width="52" height="12" fill="#4f535b" stroke="#989898" rx="3"/>
  <text x="322" y="309" fill="#dddddd" font-size="8" font-weight="700" text-anchor="middle">tools</text>
  <text x="648" y="291" fill="#dddddd" font-size="8" text-anchor="middle">Rename</text>
  <text x="648" y="303" fill="#dddddd" font-size="8" text-anchor="middle">Fork</text>
  <text x="648" y="315" fill="#dddddd" font-size="8" text-anchor="middle">Archive</text>
  <line x1="148" y1="277" x2="148" y2="322" stroke="rgba(111,111,111,0.3)"/>
  <line x1="240" y1="277" x2="240" y2="322" stroke="rgba(111,111,111,0.3)"/>
  <line x1="596" y1="277" x2="596" y2="322" stroke="rgba(111,111,111,0.3)"/>

  <!-- row 3 Agent -->
  <rect x="60" y="322" width="640" height="45" fill="#363940"/>
  <rect x="68" y="332" width="72" height="16" fill="#325ca2" rx="3"/>
  <text x="104" y="344" fill="#f1f1f1" font-size="8" font-weight="700" text-anchor="middle">Agent</text>
  <text x="148" y="338" fill="#dddddd" font-size="9">2026-08-25 08:11</text>
  <text x="148" y="352" fill="#c2a8a4" font-size="10">♡</text>
  <text x="248" y="338" fill="#dddddd" font-size="11">plan: gallery shell rebuild</text>
  <rect x="248" y="344" width="40" height="12" fill="#4f535b" stroke="#989898" rx="3"/>
  <text x="268" y="354" fill="#dddddd" font-size="8" font-weight="700" text-anchor="middle">plan</text>
  <rect x="292" y="344" width="48" height="12" fill="#4f535b" stroke="#989898" rx="3"/>
  <text x="316" y="354" fill="#dddddd" font-size="8" font-weight="700" text-anchor="middle">agent</text>
  <text x="648" y="336" fill="#dddddd" font-size="8" text-anchor="middle">Rename</text>
  <text x="648" y="348" fill="#dddddd" font-size="8" text-anchor="middle">Fork</text>
  <text x="648" y="360" fill="#dddddd" font-size="8" text-anchor="middle">Archive</text>
  <line x1="148" y1="322" x2="148" y2="367" stroke="rgba(111,111,111,0.3)"/>
  <line x1="240" y1="322" x2="240" y2="367" stroke="rgba(111,111,111,0.3)"/>
  <line x1="596" y1="322" x2="596" y2="367" stroke="rgba(111,111,111,0.3)"/>

  <!-- row 4 Misc -->
  <rect x="60" y="367" width="640" height="45" fill="#3c414b"/>
  <rect x="68" y="377" width="72" height="16" fill="#777777" rx="3"/>
  <text x="104" y="389" fill="#f1f1f1" font-size="8" font-weight="700" text-anchor="middle">Misc</text>
  <text x="148" y="383" fill="#dddddd" font-size="9">2026-08-24 16:43</text>
  <text x="148" y="397" fill="#c2a8a4" font-size="10">♡</text>
  <text x="248" y="383" fill="#dddddd" font-size="11">notes / untitled</text>
  <rect x="248" y="389" width="48" height="12" fill="#4f535b" stroke="#989898" rx="3"/>
  <text x="272" y="399" fill="#dddddd" font-size="8" font-weight="700" text-anchor="middle">notes</text>
  <text x="648" y="381" fill="#dddddd" font-size="8" text-anchor="middle">Rename</text>
  <text x="648" y="393" fill="#dddddd" font-size="8" text-anchor="middle">Fork</text>
  <text x="648" y="405" fill="#dddddd" font-size="8" text-anchor="middle">Archive</text>
  <line x1="148" y1="367" x2="148" y2="412" stroke="rgba(111,111,111,0.3)"/>
  <line x1="240" y1="367" x2="240" y2="412" stroke="rgba(111,111,111,0.3)"/>
  <line x1="596" y1="367" x2="596" y2="412" stroke="rgba(111,111,111,0.3)"/>

  <!-- footer -->
  <rect x="0" y="430" width="760" height="30" fill="#34353b" stroke="#000"/>
  <text x="380" y="449" fill="#8f8f8f" font-size="10" letter-spacing="0.5" text-anchor="middle">ds-hentai</text>
</svg>
